<svg width="30" height="75" viewBox="0 0 30 75" fill="none" xmlns="http://www.w3.org/2000/svg">
<path d="M13.3138 74.4142C14.0949 75.1953 15.3612 75.1953 16.1422 74.4142L28.8702 61.6863C29.6512 60.9052 29.6512 59.6389 28.8702 58.8579C28.0891 58.0768 26.8228 58.0768 26.0417 58.8579L14.728 70.1716L3.41432 58.8579C2.63327 58.0768 1.36694 58.0768 0.585894 58.8579C-0.195154 59.6389 -0.195154 60.9052 0.585894 61.6863L13.3138 74.4142ZM14.728 0L12.728 8.74228e-08L12.728 73L14.728 73L16.728 73L16.728 -8.74228e-08L14.728 0Z" fill="url(#paint0_linear_249_4)"/>
<defs>
<linearGradient id="paint0_linear_249_4" x1="15.228" y1="-2.18557e-08" x2="15.228" y2="73" gradientUnits="userSpaceOnUse">
<stop stop-color="#B03535"/>
<stop offset="0.5" stop-color="#3C5E5E"/>
<stop offset="1" stop-color="#425D9E"/>
</linearGradient>
</defs>
</svg>
